<?xml version="1.0" encoding="UTF-8" standalone="no"?>
<!-- Generator: Adobe Illustrator 19.0.0, SVG Export Plug-In . SVG Version: 6.00 Build 0)  -->

<svg
   xmlns:dc="http://purl.org/dc/elements/1.1/"
   xmlns:cc="http://creativecommons.org/ns#"
   xmlns:rdf="http://www.w3.org/1999/02/22-rdf-syntax-ns#"
   xmlns:svg="http://www.w3.org/2000/svg"
   xmlns="http://www.w3.org/2000/svg"
   xmlns:sodipodi="http://sodipodi.sourceforge.net/DTD/sodipodi-0.dtd"
   xmlns:inkscape="http://www.inkscape.org/namespaces/inkscape"
   version="1.1"
   id="Layer_1"
   x="0px"
   y="0px"
   viewBox="0 0 48.000001 48.000001"
   xml:space="preserve"
   inkscape:version="0.91 r13725"
   sodipodi:docname="padlock_closed.svg"
   width="48"
   height="48"><metadata
     id="metadata51"><rdf:RDF><cc:Work
         rdf:about=""><dc:format>image/svg+xml</dc:format><dc:type
           rdf:resource="http://purl.org/dc/dcmitype/StillImage" /><dc:title /></cc:Work></rdf:RDF></metadata><defs
     id="defs49" /><sodipodi:namedview
     pagecolor="#ffffff"
     bordercolor="#666666"
     borderopacity="1"
     objecttolerance="10"
     gridtolerance="10"
     guidetolerance="10"
     inkscape:pageopacity="0"
     inkscape:pageshadow="2"
     inkscape:window-width="1920"
     inkscape:window-height="879"
     id="namedview47"
     showgrid="false"
     inkscape:zoom="5.534899"
     inkscape:cx="12.318412"
     inkscape:cy="25.031728"
     inkscape:window-x="0"
     inkscape:window-y="24"
     inkscape:window-maximized="1"
     inkscape:current-layer="g4179" /><g
     id="g4179"
     transform="matrix(0.09950249,0,0,0.09950249,-5.88e-7,43.22388)"><path
       inkscape:connector-curvature="0"
       id="path3"
       d="m 398.4,-271.99998 -47.2,0 c 0,-64.00001 -43.2,-114.40001 -106.4,-114.40001 -63.2,0 -115.2,50.4 -115.2,114.40001 l -47.2,0 c 0,-88.00001 72.8,-161.60001 161.6,-161.60001 88.8,0 154.4,73.6 154.4,161.60001 z"
       style="fill:#000000" /><path
       inkscape:connector-curvature="0"
       id="path5"
       d="m 244.8,-434.39999 c 88.8,0 153.6,74.4 153.6,162.40001 l -47.2,0 c 0,-64.00001 -43.2,-115.20001 -106.4,-115.20001"
       style="fill:#000000" /><path
       inkscape:connector-curvature="0"
       id="path7"
       d="m 436.8,-15.199984 c 0,36.8 -25.6,63.2 -62.4,63.2 l -259.2,0 c -36.8,0 -70.4,-27.2 -70.4,-63.2 l 0,-207.199996 c 0,-36.8 33.6,-65.6 70.4,-65.6 l 260,0 c 36.8,0 62.4,28.8 62.4,65.6 l 0,207.199996 -0.8,0 z"
       style="fill:#fca12a" /><path
       inkscape:connector-curvature="0"
       id="path9"
       d="m 372.8,-288.79998 c 36.8,0 64,29.6 64,66.4 l 0,207.199996 c 0,36.8 -25.6,63.2 -62.4,63.2 l -259.2,0 c -36.8,0 -67.2,-28 -67.2,-64.8"
       style="fill:#e0861b" /><path
       inkscape:connector-curvature="0"
       id="path11"
       d="m 436.8,-15.199984 0,-32 -152,-153.599996 -64,170.399996 81.6,78.4 72.8,0 c 36,0 61.6,-27.2 61.6,-63.2 z"
       style="fill:#ce6d0d" /><path
       inkscape:connector-curvature="0"
       id="path13"
       d="m 305.6,-159.19998 c 0,-32.8 -27.2,-59.2 -60,-59.2 -32.8,0 -60.8,26.4 -60.8,59.2 0,22.4 12,41.6 28,51.2 l 0,59.999996 c 0,16 16,28.8 32,28.8 16,0 32,-12.8 32,-28.8 l 0,-59.999996 c 16,-10.4 28.8,-29.6 28.8,-51.2 z"
       style="fill:#4c5254" /><path
       inkscape:connector-curvature="0"
       id="path15"
       d="m 246.4,-19.199984 c 16,0 30.4,-12.8 30.4,-28.8 l 0,-59.999996 c 16,-10.4 28.8,-29.6 28.8,-51.2 0,-32.8 -26.4,-59.2 -59.2,-59.2"
       style="fill:#2f423f" /></g><g
     id="g17"
     transform="translate(0,-434.39999)" /><g
     id="g19"
     transform="translate(0,-434.39999)" /><g
     id="g21"
     transform="translate(0,-434.39999)" /><g
     id="g23"
     transform="translate(0,-434.39999)" /><g
     id="g25"
     transform="translate(0,-434.39999)" /><g
     id="g27"
     transform="translate(0,-434.39999)" /><g
     id="g29"
     transform="translate(0,-434.39999)" /><g
     id="g31"
     transform="translate(0,-434.39999)" /><g
     id="g33"
     transform="translate(0,-434.39999)" /><g
     id="g35"
     transform="translate(0,-434.39999)" /><g
     id="g37"
     transform="translate(0,-434.39999)" /><g
     id="g39"
     transform="translate(0,-434.39999)" /><g
     id="g41"
     transform="translate(0,-434.39999)" /><g
     id="g43"
     transform="translate(0,-434.39999)" /><g
     id="g45"
     transform="translate(0,-434.39999)" /></svg>